<svg width="44" height="38" viewBox="0 0 44 38" fill="none" xmlns="http://www.w3.org/2000/svg">
<path d="M10.0216 12.2371C10.0216 11.6643 10.267 11.1149 10.7037 10.7098C11.1405 10.3047 11.7328 10.0771 12.3504 10.0771H27.8761C28.4937 10.0771 29.0861 10.3047 29.5228 10.7098C29.9595 11.1149 30.2049 11.6643 30.2049 12.2371V12.9571H10.0216V12.2371Z" stroke="#003E73"/>
<path d="M26.3239 7.91699V10.797M13.9034 7.91699V10.797" stroke="#003E73" stroke-linecap="round"/>
<path d="M10.0216 15.8369H30.2049V23.7569C30.2049 24.3298 29.9595 24.8792 29.5228 25.2842C29.0861 25.6893 28.4937 25.9169 27.8761 25.9169H12.3504C11.7328 25.9169 11.1405 25.6893 10.7037 25.2842C10.267 24.8792 10.0216 24.3298 10.0216 23.7569V15.8369Z" stroke="#003E73"/>
<path d="M25.935 18.3574H27.4876M21.5366 18.3574H23.0892M17.1367 18.3574H18.6892M12.7383 20.8774H14.2908M25.935 20.8774H27.4876M21.5366 20.8774H23.0892M17.1367 20.8774H18.6892M12.7383 23.3974H14.2908M21.5366 23.3974H23.0892M17.1367 23.3974H18.6892" stroke="#003E73" stroke-linecap="round"/>
</svg>
