<svg width="50" height="53" viewBox="0 0 50 53" fill="none" xmlns="http://www.w3.org/2000/svg">
<path id="Vector" d="M0 8.13333C0 3.66 4.02 0 8.93333 0H40.2C45.1133 0 49.1333 3.66 49.1333 8.13333V40.6667C49.1333 44.7333 44.6667 44.7333 44.6667 44.7333V48.8C44.6667 51.0367 42.6567 52.8667 40.2 52.8667C37.7433 52.8667 35.7333 51.0367 35.7333 48.8V44.7333H13.4V48.8C13.4 51.0367 11.39 52.8667 8.93333 52.8667C6.47667 52.8667 4.46667 51.0367 4.46667 48.8V44.7333C0 44.7333 0 40.6667 0 40.6667V8.13333ZM6.7 12.2C5.44933 12.2 4.46667 13.0947 4.46667 14.2333V26.4333C4.46667 27.572 5.44933 28.4667 6.7 28.4667H42.4333C43.684 28.4667 44.6667 27.572 44.6667 26.4333V14.2333C44.6667 13.0947 43.684 12.2 42.4333 12.2H6.7ZM8.93333 32.5333C6.47667 32.5333 4.46667 34.3633 4.46667 36.6C4.46667 38.8367 6.47667 40.6667 8.93333 40.6667C11.39 40.6667 13.4 38.8367 13.4 36.6C13.4 34.3633 11.39 32.5333 8.93333 32.5333ZM40.2 32.5333C37.7433 32.5333 35.7333 34.3633 35.7333 36.6C35.7333 38.8367 37.7433 40.6667 40.2 40.6667C42.6567 40.6667 44.6667 38.8367 44.6667 36.6C44.6667 34.3633 42.6567 32.5333 40.2 32.5333ZM8.93333 6.1C8.93333 7.23867 9.916 8.13333 11.1667 8.13333H37.9667C39.2173 8.13333 40.2 7.23867 40.2 6.1C40.2 4.96133 39.2173 4.06667 37.9667 4.06667H11.1667C9.916 4.06667 8.93333 4.96133 8.93333 6.1Z" fill="#4053B2"/>
</svg>
