<svg width="1" height="15" viewBox="0 0 23 16" fill="none" xmlns="http://www.w3.org/2000/svg">
    <path d="M2.17529 0C1.06529 0 0.175293 0.89 0.175293 2V13H2.17529C2.17529 13.7956 2.49136 14.5587 3.05397 15.1213C3.61658 15.6839 4.37964 16 5.17529 16C5.97094 16 6.734 15.6839 7.29661 15.1213C7.85922 14.5587 8.17529 13.7956 8.17529 13H14.1753C14.1753 13.7956 14.4914 14.5587 15.054 15.1213C15.6166 15.6839 16.3796 16 17.1753 16C17.9709 16 18.734 15.6839 19.2966 15.1213C19.8592 14.5587 20.1753 13.7956 20.1753 13H22.1753V10C22.1753 8.89 21.2853 8 20.1753 8H18.1753V5.5H22.1753V2C22.1753 0.89 21.2853 0 20.1753 0H2.17529ZM1.67529 1.5H5.67529V4H1.67529V1.5ZM7.17529 1.5H11.1753V4H7.17529V1.5ZM12.6753 1.5H16.6753V4H12.6753V1.5ZM18.1753 1.5H20.6753V4H18.1753V1.5ZM12.6753 5.5H16.6753V8H12.6753V5.5ZM1.67529 5.5H5.67529V8H1.67529V5.5ZM7.17529 5.5H11.1753V8H7.17529V5.5ZM5.17529 11.5C5.57312 11.5 5.95465 11.658 6.23595 11.9393C6.51726 12.2206 6.67529 12.6022 6.67529 13C6.67529 13.3978 6.51726 13.7794 6.23595 14.0607C5.95465 14.342 5.57312 14.5 5.17529 14.5C4.77747 14.5 4.39594 14.342 4.11463 14.0607C3.83333 13.7794 3.67529 13.3978 3.67529 13C3.67529 12.6022 3.83333 12.2206 4.11463 11.9393C4.39594 11.658 4.77747 11.5 5.17529 11.5ZM17.1753 11.5C17.5731 11.5 17.9546 11.658 18.236 11.9393C18.5173 12.2206 18.6753 12.6022 18.6753 13C18.6753 13.3978 18.5173 13.7794 18.236 14.0607C17.9546 14.342 17.5731 14.5 17.1753 14.5C16.7775 14.5 16.3959 14.342 16.1146 14.0607C15.8333 13.7794 15.6753 13.3978 15.6753 13C15.6753 12.6022 15.8333 12.2206 16.1146 11.9393C16.3959 11.658 16.7775 11.5 17.1753 11.5Z" fill="white"/>
</svg>
