<svg width="233" height="194" viewBox="0 0 233 194" fill="none" xmlns="http://www.w3.org/2000/svg">
<g id="Group 48">
<path id="Vector" d="M220.026 29.8457C220.026 29.8457 223.615 51.5881 224.686 70.8289C225.45 82.509 225.327 94.2617 224.319 105.964L197.851 106.299L198.648 30.116L220.026 29.8457Z" fill="#00B8F0"/>
<path id="Vector_2" d="M224.94 95.3162C224.871 101.848 224.269 105.965 224.269 105.965L197.801 106.3L198.401 48.8671L224.94 95.3162Z" fill="#4ACFFF"/>
<path id="Vector_3" d="M220.026 29.8457C220.026 29.8457 223.615 51.5881 224.686 70.8289C225.45 82.509 225.327 94.2617 224.319 105.964L197.851 106.299L198.648 30.116L220.026 29.8457Z" stroke="#45413C" stroke-linecap="round" stroke-linejoin="round"/>
<path id="Vector_4" d="M11.0579 146.719L226.771 143.991L227.169 105.928C227.185 104.434 226.664 103.009 225.72 101.965C224.777 100.921 223.488 100.344 222.138 100.361L218.83 100.403C217.564 100.426 216.346 99.9265 215.414 99.0014C214.483 98.0762 213.905 96.7922 213.793 95.4001L207.459 39.181C207.413 38.7701 207.447 38.351 207.558 37.9516C207.669 37.5521 207.855 37.1814 208.104 36.8641C208.353 36.5468 208.658 36.2902 209.001 36.1112C209.343 35.9322 209.715 35.835 210.09 35.8261L222.255 35.6723C222.63 35.6703 223.002 35.5803 223.346 35.4081C223.691 35.236 224 34.9857 224.254 34.6738C224.507 34.3619 224.699 33.9955 224.817 33.5988C224.934 33.2022 224.975 32.7844 224.936 32.373L223.919 22.5335C223.638 19.6909 222.42 17.0855 220.498 15.2109C218.576 13.3363 216.083 12.3229 213.491 12.3626L28.3173 14.7039C24.1054 14.7572 20.0467 16.6591 17.034 19.9914C14.0214 23.3236 12.3015 27.8132 12.2528 32.4724L11.0579 146.719Z" fill="#EB1B24" fill-opacity="0.8"/>
<path id="Vector_5" d="M28.3176 14.7042L213.491 12.3629C216.083 12.3232 218.577 13.3366 220.499 15.2112C222.421 17.0858 223.638 19.6912 223.92 22.5338L224.936 32.3733C224.988 32.9771 224.872 33.5882 224.602 34.1249C224.333 34.6616 223.924 35.0981 223.429 35.3762C222.824 32.9355 221.512 30.7978 219.691 29.2869C217.87 27.7759 215.64 26.974 213.338 27.0027L28.1645 29.344C23.9526 29.3972 19.8939 31.2992 16.8813 34.6314C13.8686 37.9636 12.1487 42.4532 12.1 47.1124L12.2531 32.4727C12.3018 27.8135 14.0217 23.3239 17.0344 19.9917C20.0471 16.6594 24.1058 14.7575 28.3176 14.7042Z" fill="#EB1B24"/>
<path id="Vector_6" d="M11.0578 146.719L226.771 143.991L227.169 105.928C227.185 104.434 226.664 103.009 225.72 101.965C224.777 100.921 223.488 100.344 222.138 100.362L218.83 100.403C217.564 100.426 216.346 99.9265 215.414 99.0014C214.483 98.0762 213.905 96.7922 213.793 95.4001L207.459 39.181C207.413 38.7701 207.447 38.351 207.558 37.9516C207.669 37.5521 207.855 37.1814 208.104 36.8641C208.353 36.5468 208.658 36.2902 209.001 36.1112C209.343 35.9322 209.715 35.835 210.09 35.8261L222.255 35.6723C222.63 35.6703 223.002 35.5803 223.346 35.4081C223.691 35.236 224 34.9857 224.254 34.6738C224.507 34.3619 224.699 33.9955 224.817 33.5988C224.934 33.2022 224.975 32.7844 224.936 32.373L223.919 22.5335C223.638 19.6909 222.42 17.0855 220.498 15.2109C218.576 13.3363 216.083 12.3229 213.491 12.3626L28.3173 14.7039C24.1054 14.7572 20.0467 16.6591 17.0341 19.9914C14.0214 23.3236 12.3015 27.8132 12.2528 32.4724L11.0578 146.719Z" stroke="#45413C" stroke-linecap="round" stroke-linejoin="round"/>
<path id="Vector_7" d="M226.771 143.991L11.0577 146.719C10.3557 146.728 9.67922 147.045 9.1771 147.6C8.675 148.155 8.38837 148.904 8.38024 149.68L8.22712 164.32C8.2115 165.813 8.73278 167.239 9.6763 168.283C10.6198 169.326 11.9083 169.903 13.2582 169.886L223.882 167.223C225.232 167.206 226.533 166.596 227.498 165.528C228.464 164.46 229.015 163.021 229.031 161.528L229.184 146.888C229.193 146.149 228.95 145.44 228.503 144.903C228.055 144.365 227.437 144.04 226.771 143.991Z" fill="#FFC30F" fill-opacity="0.9"/>
<path id="Vector_8" d="M11.0578 146.719L226.771 143.992C227.127 143.972 227.482 144.032 227.813 144.168C228.145 144.304 228.447 144.514 228.7 144.784C228.954 145.054 229.155 145.379 229.29 145.74C229.426 146.101 229.494 146.491 229.489 146.885L229.459 149.813C229.443 151.306 228.892 152.745 227.926 153.813C226.961 154.881 225.66 155.491 224.31 155.508L13.5844 158.172C12.2345 158.189 10.946 157.612 10.0025 156.568C9.05901 155.524 8.53772 154.099 8.55334 152.606L8.58396 149.678C8.58971 148.939 8.84791 148.223 9.30674 147.674C9.76557 147.125 10.3911 146.784 11.0578 146.719Z" fill="#FFC30F"/>
<path id="Vector_9" d="M226.771 143.991L11.0577 146.719C10.3557 146.728 9.67922 147.045 9.17711 147.6C8.675 148.155 8.38836 148.904 8.38024 149.68L8.22712 164.32C8.2115 165.813 8.73278 167.239 9.6763 168.283C10.6198 169.326 11.9083 169.903 13.2582 169.886L223.882 167.223C225.232 167.206 226.533 166.596 227.498 165.528C228.464 164.46 229.015 163.021 229.031 161.528L229.184 146.888C229.193 146.149 228.95 145.44 228.503 144.903C228.055 144.365 227.437 144.04 226.771 143.991Z" stroke="#45413C" stroke-opacity="0.9" stroke-linecap="round" stroke-linejoin="round"/>
<path id="Vector_10" d="M52.1381 14.4032L185.801 12.7132L184.197 5.47086C183.962 4.19341 183.33 3.0568 182.41 2.25665C181.489 1.45651 180.338 1.04289 179.154 1.08699L59.0303 2.60581C57.8469 2.59164 56.6866 3.03449 55.7491 3.85813C54.8116 4.68177 54.1555 5.83467 53.8938 7.11839L52.1381 14.4032Z" fill="#EB1B24" stroke="#45413C" stroke-linecap="round" stroke-linejoin="round"/>
<path id="Vector_11" d="M165.54 100.852L192.415 100.512C192.795 100.511 193.172 100.42 193.521 100.245C193.869 100.069 194.181 99.8134 194.435 99.4951C194.69 99.1768 194.881 98.8032 194.995 98.3998C195.109 97.9963 195.144 97.5724 195.097 97.1568L188.763 40.9377C188.651 39.5456 188.073 38.2616 187.142 37.3365C186.21 36.4113 184.993 35.9115 183.726 35.9345L33.3684 37.8356C32.0184 37.8527 30.7175 38.4623 29.7519 39.5303C28.7863 40.5983 28.2351 42.0373 28.2195 43.5306L27.8514 78.7222C27.8358 80.2156 28.3571 81.641 29.3006 82.6849C30.2441 83.7288 31.5325 84.3056 32.8825 84.2885L154.126 82.7556C155.361 82.7265 156.553 83.1952 157.481 84.0743C158.408 84.9534 159.007 86.1829 159.165 87.5336L160.254 95.3454C160.316 96.8531 160.899 98.264 161.882 99.2881C162.865 100.312 164.174 100.872 165.54 100.852Z" fill="#00B8F0"/>
<path id="Vector_12" d="M139.814 83.7245L114.142 37.2082L44.258 37.9229L69.9809 84.4949L139.814 83.7245Z" fill="#4ACFFF"/>
<path id="Vector_13" d="M165.54 100.852L192.415 100.512C192.795 100.511 193.172 100.42 193.521 100.245C193.869 100.069 194.181 99.8134 194.435 99.4951C194.69 99.1768 194.881 98.8032 194.995 98.3998C195.109 97.9963 195.144 97.5724 195.097 97.1568L188.763 40.9377C188.651 39.5456 188.073 38.2616 187.142 37.3365C186.21 36.4113 184.993 35.9115 183.726 35.9345L33.3684 37.8356C32.0184 37.8527 30.7175 38.4623 29.7519 39.5303C28.7863 40.5983 28.2351 42.0373 28.2195 43.5306L27.8514 78.7222C27.8358 80.2156 28.3571 81.641 29.3006 82.6849C30.2441 83.7288 31.5325 84.3056 32.8825 84.2886L154.126 82.7556C155.361 82.7265 156.553 83.1952 157.481 84.0743C158.408 84.9534 159.007 86.1829 159.165 87.5336L160.254 95.3454C160.316 96.8531 160.899 98.264 161.882 99.2881C162.865 100.312 164.174 100.872 165.54 100.852Z" stroke="#45413C" stroke-linecap="round" stroke-linejoin="round"/>
<path id="Vector_14" d="M227.048 117.64L11.3345 120.368L11.0589 146.719L226.772 143.992L227.048 117.64Z" fill="#FFC30F" stroke="#45413C" stroke-linecap="round" stroke-linejoin="round"/>
<path id="Vector_15" d="M227.076 114.824L221.986 114.889L221.804 132.344L226.894 132.279C228.243 132.262 229.544 131.653 230.51 130.585C231.476 129.516 232.027 128.078 232.042 126.584L232.107 120.39C232.123 118.897 231.602 117.472 230.658 116.428C229.714 115.384 228.426 114.807 227.076 114.824ZM11.3944 114.511L6.30439 114.575C4.95443 114.592 3.65357 115.202 2.68797 116.27C1.72236 117.338 1.17113 118.777 1.15551 120.27L1.06364 129.054C1.04802 130.548 1.5693 131.973 2.51281 133.017C3.45632 134.061 4.74477 134.638 6.09473 134.621L11.1847 134.556L11.3944 114.511Z" fill="#FF6242" stroke="#45413C" stroke-linecap="round" stroke-linejoin="round"/>
<path id="Vector_16" d="M189.595 156.172C184.924 156.266 180.378 158.065 176.662 161.288C172.947 164.512 170.271 168.98 169.051 173.997C168.639 172.162 168.42 170.276 168.397 168.376C168.462 162.163 170.755 156.177 174.772 151.734C178.789 147.291 184.201 144.755 189.817 144.684C195.432 144.613 200.792 147.013 204.717 151.356C208.642 155.698 210.811 161.628 210.746 167.84C210.688 169.746 210.412 171.641 209.924 173.48C208.81 168.46 206.207 164.033 202.525 160.898C198.843 157.763 194.293 156.1 189.595 156.172ZM47.9914 157.962C43.3189 158.047 38.768 159.842 35.0507 163.067C31.3334 166.293 28.6596 170.766 27.4477 175.788C26.9981 173.96 26.7613 172.071 26.7431 170.167C26.808 163.954 29.1012 157.968 33.1181 153.525C37.135 149.082 42.5466 146.546 48.1624 146.475C53.7782 146.404 59.1381 148.804 63.0631 153.147C66.9882 157.489 69.1567 163.419 69.0917 169.631C69.0295 171.532 68.7707 173.425 68.3202 175.271C67.1988 170.256 64.5932 165.834 60.9131 162.7C57.2331 159.567 52.6875 157.9 47.9914 157.962Z" fill="#656769"/>
<path id="Vector_17" d="M210.646 167.616C210.581 173.829 208.288 179.815 204.271 184.258C200.254 188.701 194.843 191.237 189.227 191.308C183.611 191.379 178.251 188.979 174.326 184.636C170.401 180.294 168.232 174.364 168.297 168.152C168.362 161.94 170.656 155.953 174.673 151.511C178.689 147.068 184.101 144.532 189.717 144.461C195.333 144.39 200.693 146.789 204.618 151.132C208.543 155.474 210.711 161.404 210.646 167.616ZM69.0428 169.407C68.9778 175.619 66.6846 181.605 62.6677 186.048C58.6508 190.491 53.2392 193.027 47.6234 193.098C42.0077 193.169 36.6477 190.769 32.7227 186.427C28.7977 182.084 26.6291 176.155 26.6941 169.942C26.7591 163.73 29.0522 157.744 33.0691 153.301C37.086 148.858 42.4976 146.322 48.1134 146.251C53.7292 146.18 59.0892 148.58 63.0142 152.922C66.9392 157.265 69.1077 163.195 69.0428 169.407Z" stroke="#45413C" stroke-opacity="0.61" stroke-linecap="round" stroke-linejoin="round"/>
<path id="Vector_18" d="M197.412 167.783C197.387 170.112 196.527 172.357 195.021 174.023C193.515 175.689 191.485 176.64 189.379 176.667C187.274 176.694 185.264 175.794 183.792 174.165C182.32 172.537 181.507 170.313 181.531 167.984C181.555 165.654 182.415 163.409 183.922 161.743C185.428 160.077 187.457 159.126 189.563 159.099C191.669 159.073 193.679 159.973 195.151 161.601C196.623 163.23 197.436 165.453 197.412 167.783ZM55.8083 169.573C55.7839 171.903 54.924 174.148 53.4177 175.814C51.9113 177.48 49.882 178.431 47.7761 178.458C45.6702 178.484 43.6602 177.584 42.1883 175.956C40.7164 174.327 39.9032 172.104 39.9276 169.774C39.9519 167.444 40.8119 165.2 42.3182 163.534C43.8245 161.867 45.8539 160.916 47.9598 160.89C50.0657 160.863 52.0757 161.763 53.5476 163.392C55.0195 165.02 55.8327 167.244 55.8083 169.573Z" fill="#DAEDF7" stroke="#45413C" stroke-linecap="round" stroke-linejoin="round"/>
<path id="Vector_19" d="M155.951 83.408L156.441 36.5046M91.7478 37.3226L91.2572 84.226M124.069 36.9139L123.579 83.8173M59.4264 37.7312L58.9358 84.6346M204.206 24.1904L193.619 24.3243M44.0753 26.2151L33.4882 26.349" stroke="#45413C" stroke-linecap="round" stroke-linejoin="round"/>
<g id="Group 7">
<g id="Group 3">
<g id="Vector_20">
<path d="M169.191 169.086C169.202 181.567 178.684 191.376 190.369 190.994C202.055 190.612 211.518 180.184 211.506 167.702C211.495 155.221 202.013 145.413 190.327 145.795C178.642 146.177 169.179 156.604 169.191 169.086Z" fill="#EB1B24"/>
<path d="M175.275 168.887C175.283 177.959 182.039 185.092 190.365 184.82C198.691 184.548 205.434 176.973 205.426 167.901C205.417 158.83 198.661 151.696 190.335 151.968C182.009 152.241 175.266 159.815 175.275 168.887Z" fill="#ACB7D0"/>
<path d="M184.424 168.588C184.428 172.154 187.084 174.958 190.357 174.851C193.63 174.744 196.28 171.766 196.277 168.2C196.274 164.634 193.618 161.83 190.345 161.937C187.072 162.044 184.421 165.022 184.424 168.588Z" fill="#EB1B24"/>
</g>
</g>
</g>
<g id="Group 8">
<g id="Group 3_2">
<g id="Vector_21">
<path d="M27.488 169.942C27.4996 182.424 36.9817 192.232 48.6668 191.85C60.3519 191.468 69.8152 181.04 69.8036 168.559C69.792 156.078 60.3099 146.269 48.6248 146.651C36.9396 147.033 27.4764 157.461 27.488 169.942Z" fill="#EB1B24"/>
<path d="M33.572 169.743C33.5804 178.815 40.3368 185.948 48.6628 185.676C56.9888 185.404 63.7316 177.829 63.7231 168.758C63.7147 159.686 56.9583 152.553 48.6323 152.825C40.3063 153.097 33.5635 160.672 33.572 169.743Z" fill="#ACB7D0"/>
<path d="M42.7217 169.444C42.725 173.01 45.381 175.814 48.6539 175.707C51.9269 175.6 54.5775 172.623 54.5742 169.057C54.5709 165.491 51.9149 162.687 48.6419 162.794C45.3689 162.901 42.7184 165.878 42.7217 169.444Z" fill="#EB1B24"/>
</g>
</g>
</g>
</g>
</svg>
