<svg width="38" height="40" viewBox="0 0 38 40" fill="none" xmlns="http://www.w3.org/2000/svg">
<path d="M23.5028 33.3335H10.2915C8.10809 33.3335 6.33317 31.4652 6.33317 29.1668C6.33317 26.8685 8.10809 25.0002 10.2915 25.0002H21.3748C24.4307 25.0002 26.9165 22.3835 26.9165 19.1668C26.9165 15.9502 24.4307 13.3335 21.3748 13.3335H13.6783C13.0968 14.5333 12.3767 15.6529 11.5344 16.6668H21.3748C22.6843 16.6668 23.7498 17.7885 23.7498 19.1668C23.7498 20.5452 22.6843 21.6668 21.3748 21.6668H10.2915C6.36325 21.6668 3.1665 25.0318 3.1665 29.1668C3.1665 33.3018 6.36325 36.6668 10.2915 36.6668H25.4804C24.7035 35.6381 24.04 34.5198 23.5028 33.3335ZM7.9165 3.3335C5.29767 3.3335 3.1665 5.57683 3.1665 8.3335C3.1665 13.6468 7.9165 16.6668 7.9165 16.6668C7.9165 16.6668 12.6665 13.6452 12.6665 8.3335C12.6665 5.57683 10.5353 3.3335 7.9165 3.3335ZM7.9165 10.8335C7.60451 10.8334 7.29559 10.7686 7.00739 10.6428C6.71918 10.517 6.45734 10.3327 6.2368 10.1004C6.01626 9.86813 5.84135 9.59238 5.72205 9.28892C5.60275 8.98546 5.5414 8.66024 5.5415 8.33183C5.54161 8.00342 5.60316 7.67824 5.72265 7.37487C5.84214 7.07149 6.01723 6.79586 6.23792 6.56372C6.4586 6.33157 6.72057 6.14745 7.00885 6.02187C7.29713 5.8963 7.60609 5.83172 7.91809 5.83183C8.54819 5.83205 9.15239 6.09574 9.59779 6.5649C10.0432 7.03405 10.2933 7.67023 10.2931 8.3335C10.2929 8.99676 10.0424 9.63277 9.59667 10.1016C9.15098 10.5704 8.5466 10.8337 7.9165 10.8335Z" fill="#ABABAB"/>
<path d="M30.0835 23.333C27.4647 23.333 25.3335 25.5763 25.3335 28.333C25.3335 33.6463 30.0835 36.6663 30.0835 36.6663C30.0835 36.6663 34.8335 33.6447 34.8335 28.333C34.8335 25.5763 32.7023 23.333 30.0835 23.333ZM30.0835 30.833C29.7715 30.8329 29.4626 30.7681 29.1744 30.6423C28.8862 30.5165 28.6243 30.3322 28.4038 30.0999C28.1833 29.8676 28.0083 29.5919 27.889 29.2884C27.7697 28.985 27.7084 28.6598 27.7085 28.3313C27.7086 28.0029 27.7702 27.6778 27.8896 27.3744C28.0091 27.071 28.1842 26.7954 28.4049 26.5632C28.6256 26.3311 28.8876 26.147 29.1758 26.0214C29.4641 25.8958 29.7731 25.8312 30.0851 25.8313C30.7152 25.8316 31.3194 26.0953 31.7648 26.5644C32.2102 27.0336 32.4603 27.6697 32.4601 28.333C32.4599 28.9963 32.2094 29.6323 31.7637 30.1011C31.318 30.57 30.7136 30.8332 30.0835 30.833Z" fill="#ABABAB"/>
</svg>
