<svg width="248" height="106" viewBox="0 0 248 106" fill="none" xmlns="http://www.w3.org/2000/svg">
<g id="Group 11">
<g id="Group 9">
<path id="Vector" d="M3.23946 52.1277L3.23672 52.1349L3.23666 52.135L3.23621 52.1363L3.23389 52.1425L3.22389 52.1697C3.21492 52.1943 3.20139 52.2318 3.18384 52.2817C3.14873 52.3816 3.09753 52.5311 3.03447 52.726C2.90834 53.116 2.73479 53.6879 2.54739 54.4092C2.17242 55.8526 1.74309 57.8905 1.52635 60.2651C1.09215 65.0222 1.51527 71.0802 4.88026 76.425L4.89336 76.4458L4.90436 76.4678C5.66913 77.9975 7.53236 80.0728 9.68857 81.828C10.7597 82.7 11.8869 83.4795 12.9626 84.0634C14.0345 84.6454 15.0244 85.0162 15.8405 85.1119L81.0889 85.9224L81.0949 85.9226L163.792 87.9498L163.802 87.9499L242.248 88.3542C246.836 84.0659 247.609 79.3194 247.265 74.395C247.122 72.3567 246.789 70.3044 246.454 68.2364C246.377 67.7618 246.299 67.2864 246.224 66.8101C245.825 64.2771 245.489 61.7295 245.591 59.2464C245.591 57.9989 245.575 56.545 244.864 55.4794L244.851 55.459L244.839 55.4374C241.656 49.4684 232.854 37.8218 211.136 33.394C203.449 32.1806 196.195 31.3768 188.547 31.7793L188.534 31.78H188.521C187.591 31.78 186.689 31.3287 185.918 30.9433L185.864 30.9163L185.836 30.9021L185.81 30.8845L144.052 2.90846C144.052 2.90831 144.051 2.90816 144.051 2.90801C142.935 2.16434 141.417 1.77607 139.869 1.77607L139.867 1.77606L60.4059 1.37061C60.4055 1.37061 60.4051 1.37061 60.4046 1.37061C59.5818 1.37061 58.8873 1.37808 58.197 1.72327L58.1572 1.74318L58.1145 1.75575C37.5658 7.79998 23.8463 20.3923 15.259 31.4847C10.9654 37.0308 7.95779 42.1984 6.02438 45.9776C5.05782 47.8669 4.36009 49.4085 3.90471 50.4758C3.67703 51.0094 3.50995 51.4245 3.40016 51.7051C3.37288 51.7748 3.34914 51.8362 3.32887 51.8891C3.30838 51.9426 3.29146 51.9874 3.27805 52.0231C3.26472 52.0587 3.25487 52.0853 3.24844 52.1028L3.24136 52.1222L3.23975 52.1267L3.23946 52.1277Z" fill="#EB1B24" stroke="#747BBF"/>
<path id="Vector_2" d="M140.796 11.82L140.587 11.6705V11.5165C140.573 11.515 140.557 11.5137 140.54 11.5126C140.465 11.5075 140.381 11.5073 140.276 11.5073H54.3253C50.9527 11.5073 47.9331 14.5271 47.9331 17.9001V35.3349C47.9331 35.8294 48.0958 36.2027 48.3441 36.4511C48.5913 36.6982 48.962 36.8605 49.4529 36.8621C57.902 36.5991 97.7852 36.8486 130.927 37.056C148.825 37.1679 164.757 37.2676 172.71 37.2676C172.749 37.2676 172.844 37.2447 173.018 37.1142C173.17 37.0001 173.329 36.8465 173.512 36.664C173.652 36.3504 173.719 35.9722 173.683 35.6435C173.644 35.2923 173.501 35.0733 173.297 34.9711L173.262 34.9537L173.23 34.9311L140.796 11.82Z" fill="#FFC30F" stroke="#747BBF"/>
<path id="Vector_3" d="M240.64 49.5894H240.629L240.618 49.5889L227.459 48.9992C222.345 48.7701 218.16 52.9386 218.295 57.9882L245.306 56.5063C245.277 56.3916 245.235 56.2477 245.176 56.0686C245.08 55.7771 244.763 55.2225 244.29 54.5055C243.83 53.8081 243.258 53.0089 242.697 52.2504C242.137 51.4928 241.592 50.7799 241.186 50.2563C240.984 49.9945 240.816 49.7803 240.699 49.6316C240.688 49.6169 240.677 49.6028 240.666 49.5894H240.64Z" fill="#FFC30F" stroke="#747BBF"/>
<rect id="Rectangle 24" width="21.6134" height="3.32315" rx="1.66158" transform="matrix(-1 0 0 1 69.0461 41.5398)" fill="#747BBF"/>
<path id="Vector 14" d="M114.359 36.1958V11.4644" stroke="#747BBF"/>
<g id="Group 7">
<g id="Group 3">
<g id="Vector_4">
<path d="M176.942 80.3406C176.942 94.4381 188.599 105.866 202.978 105.866C217.357 105.866 229.013 94.4381 229.013 80.3406C229.013 66.2432 217.357 54.8149 202.978 54.8149C188.599 54.8149 176.942 66.2432 176.942 80.3406Z" fill="#FFC30F"/>
<path d="M184.429 80.3407C184.429 90.5869 192.735 98.8932 202.98 98.8932C213.225 98.8932 221.531 90.5869 221.531 80.3407C221.531 70.0944 213.225 61.7881 202.98 61.7881C192.735 61.7881 184.429 70.0944 184.429 80.3407Z" fill="#ACB7D0"/>
<path d="M195.688 80.3406C195.688 84.3685 198.953 87.6337 202.98 87.6337C207.008 87.6337 210.273 84.3685 210.273 80.3406C210.273 76.3128 207.008 73.0476 202.98 73.0476C198.953 73.0476 195.688 76.3128 195.688 80.3406Z" fill="#FFC30F"/>
</g>
</g>
</g>
<g id="Group 8">
<g id="Group 3_2">
<g id="Vector_5">
<path d="M16.114 80.3406C16.114 94.4381 27.7705 105.866 42.1494 105.866C56.5284 105.866 68.1848 94.4381 68.1848 80.3406C68.1848 66.2432 56.5284 54.8149 42.1494 54.8149C27.7705 54.8149 16.114 66.2432 16.114 80.3406Z" fill="#FFC30F"/>
<path d="M23.6006 80.3407C23.6006 90.5869 31.9061 98.8932 42.1516 98.8932C52.397 98.8932 60.7026 90.5869 60.7026 80.3407C60.7026 70.0944 52.397 61.7881 42.1516 61.7881C31.9061 61.7881 23.6006 70.0944 23.6006 80.3407Z" fill="#ACB7D0"/>
<path d="M34.8596 80.3406C34.8596 84.3685 38.1245 87.6337 42.1521 87.6337C46.1796 87.6337 49.4445 84.3685 49.4445 80.3406C49.4445 76.3128 46.1796 73.0476 42.1521 73.0476C38.1245 73.0476 34.8596 76.3128 34.8596 80.3406Z" fill="#FFC30F"/>
</g>
</g>
</g>
</g>
</g>
</svg>
