<svg width="85" height="71" viewBox="0 0 85 71" fill="none" xmlns="http://www.w3.org/2000/svg">
    <g id="dashicons:car">
        <path id="Vector"
            d="M59.5 53.2501C63.0208 53.2501 65.875 50.866 65.875 47.9251C65.875 44.9842 63.0208 42.6001 59.5 42.6001C55.9792 42.6001 53.125 44.9842 53.125 47.9251C53.125 50.866 55.9792 53.2501 59.5 53.2501Z"
            fill="#FFD233" />
        <path id="Vector_2"
            d="M68.425 31.9498H61.625C59.075 22.3648 48.025 15.9748 36.55 18.1048C28.05 19.5248 21.25 24.8498 19.55 31.9498H16.575C12.325 31.9498 8.5 35.1448 8.5 38.6948V43.3098C8.5 45.7948 11.05 47.9248 14.025 47.9248H15.3C15.3 43.3098 19.975 39.4048 25.5 39.4048C31.025 39.4048 35.7 43.3098 35.7 47.9248H49.3C49.3 43.3098 53.975 39.4048 59.5 39.4048C65.025 39.4048 69.7 43.3098 69.7 47.9248H70.975C73.95 47.9248 76.5 45.7948 76.5 43.3098V39.0498C76.5 35.1448 72.675 31.9498 68.425 31.9498ZM26.35 31.9498C28.475 25.2048 36.975 21.6548 44.625 23.4298C49.3 24.4948 53.125 27.6898 54.825 31.9498H26.35ZM25.5 42.5998C22.1 42.5998 19.125 45.0848 19.125 47.9248C19.125 50.7648 22.1 53.2498 25.5 53.2498C28.9 53.2498 31.875 50.7648 31.875 47.9248C31.875 45.0848 28.9 42.5998 25.5 42.5998Z"
            fill="#FFD233" />
    </g>
</svg>
