<svg width="39" height="38" viewBox="0 0 39 38" fill="none" xmlns="http://www.w3.org/2000/svg">
    <path d="M8.9375 12.2367C8.9375 11.6638 9.15632 11.1144 9.54582 10.7093C9.93532 10.3042 10.4636 10.0767 11.0144 10.0767H24.8606C25.4114 10.0767 25.9397 10.3042 26.3292 10.7093C26.7187 11.1144 26.9375 11.6638 26.9375 12.2367V12.9567H8.9375V12.2367Z" stroke="#003E73"/>
    <path d="M23.4763 7.9165V10.7965M12.3994 7.9165V10.7965" stroke="#003E73" stroke-linecap="round"/>
    <path d="M8.9375 15.8364H26.9375V23.7564C26.9375 24.3293 26.7187 24.8787 26.3292 25.2838C25.9397 25.6888 25.4114 25.9164 24.8606 25.9164H11.0144C10.4636 25.9164 9.93532 25.6888 9.54582 25.2838C9.15632 24.8787 8.9375 24.3293 8.9375 23.7564V15.8364Z" stroke="#003E73"/>
    <path d="M23.1296 18.3564H24.5142M19.207 18.3564H20.5916M15.283 18.3564H16.6676M11.3604 20.8764H12.745M23.1296 20.8764H24.5142M19.207 20.8764H20.5916M15.283 20.8764H16.6676M11.3604 23.3964H12.745M19.207 23.3964H20.5916M15.283 23.3964H16.6676" stroke="#003E73" stroke-linecap="round"/>
</svg>
