<svg width="58" height="34" viewBox="0 0 58 34" fill="none" xmlns="http://www.w3.org/2000/svg">
<path d="M0 5.23077C0 2.35385 2.7 0 6 0H27C30.3 0 33 2.35385 33 5.23077V26.1538C33 28.7692 30 28.7692 30 28.7692V31.3846C30 32.8231 28.65 34 27 34C25.35 34 24 32.8231 24 31.3846V28.7692H9V31.3846C9 32.8231 7.65 34 6 34C4.35 34 3 32.8231 3 31.3846V28.7692C0 28.7692 0 26.1538 0 26.1538V5.23077ZM4.5 7.84615C3.66 7.84615 3 8.42154 3 9.15385V17C3 17.7323 3.66 18.3077 4.5 18.3077H28.5C29.34 18.3077 30 17.7323 30 17V9.15385C30 8.42154 29.34 7.84615 28.5 7.84615H4.5ZM6 20.9231C4.35 20.9231 3 22.1 3 23.5385C3 24.9769 4.35 26.1538 6 26.1538C7.65 26.1538 9 24.9769 9 23.5385C9 22.1 7.65 20.9231 6 20.9231ZM27 20.9231C25.35 20.9231 24 22.1 24 23.5385C24 24.9769 25.35 26.1538 27 26.1538C28.65 26.1538 30 24.9769 30 23.5385C30 22.1 28.65 20.9231 27 20.9231ZM6 3.92308C6 4.65538 6.66 5.23077 7.5 5.23077H25.5C26.34 5.23077 27 4.65538 27 3.92308C27 3.19077 26.34 2.61538 25.5 2.61538H7.5C6.66 2.61538 6 3.19077 6 3.92308Z" fill="#4053B2"/>
<rect x="45" y="2" width="13" height="12.0556" fill="#4053B2"/>
<rect x="51.0662" y="14.0557" width="1.73333" height="18.0834" fill="#4053B2"/>
<rect x="45.8661" y="32.1387" width="11.2667" height="0.861112" fill="#4053B2"/>
</svg>
