<svg width="65" height="56" viewBox="0 0 65 56" fill="none" xmlns="http://www.w3.org/2000/svg">
<g id="heroicons:ticket-solid">
<path id="Vector" fill-rule="evenodd" clip-rule="evenodd" d="M4.0625 14.875C4.0625 12.4577 6.3375 10.5 9.14063 10.5H55.8594C58.6625 10.5 60.9375 12.46 60.9375 14.875V21.9357C60.9377 22.243 60.844 22.5451 60.6657 22.8113C60.4874 23.0775 60.2309 23.2986 59.9219 23.4523C58.9943 23.9125 58.2238 24.5751 57.688 25.3735C57.1523 26.1719 56.8702 27.0778 56.8702 28C56.8702 28.9222 57.1523 29.8281 57.688 30.6265C58.2238 31.4249 58.9943 32.0875 59.9219 32.5477C60.2309 32.7014 60.4874 32.9224 60.6657 33.1887C60.844 33.4549 60.9377 33.757 60.9375 34.0643V41.125C60.9375 43.54 58.6625 45.5 55.8594 45.5H9.14063C7.79382 45.5 6.50218 45.0391 5.54985 44.2186C4.59752 43.3981 4.0625 42.2853 4.0625 41.125V34.0643C4.062 33.7572 4.15534 33.4553 4.33314 33.1891C4.51094 32.9229 4.76694 32.7017 5.07542 32.5477C6.00304 32.0875 6.77353 31.4249 7.30927 30.6265C7.84501 29.8281 8.12709 28.9222 8.12709 28C8.12709 27.0778 7.84501 26.1719 7.30927 25.3735C6.77353 24.5751 6.00304 23.9125 5.07542 23.4523C4.76694 23.2983 4.51094 23.0771 4.33314 22.8109C4.15534 22.5447 4.062 22.2428 4.0625 21.9357V14.875ZM44.6875 12.25C45.2262 12.25 45.7429 12.4344 46.1238 12.7626C46.5047 13.0908 46.7188 13.5359 46.7188 14V15.75C46.7188 16.2141 46.5047 16.6592 46.1238 16.9874C45.7429 17.3156 45.2262 17.5 44.6875 17.5C44.1488 17.5 43.6321 17.3156 43.2512 16.9874C42.8703 16.6592 42.6562 16.2141 42.6562 15.75V14C42.6562 13.5359 42.8703 13.0908 43.2512 12.7626C43.6321 12.4344 44.1488 12.25 44.6875 12.25ZM46.7188 22.75C46.7188 22.2859 46.5047 21.8408 46.1238 21.5126C45.7429 21.1844 45.2262 21 44.6875 21C44.1488 21 43.6321 21.1844 43.2512 21.5126C42.8703 21.8408 42.6562 22.2859 42.6562 22.75V24.5C42.6562 24.9641 42.8703 25.4092 43.2512 25.7374C43.6321 26.0656 44.1488 26.25 44.6875 26.25C45.2262 26.25 45.7429 26.0656 46.1238 25.7374C46.5047 25.4092 46.7188 24.9641 46.7188 24.5V22.75ZM44.6875 29.75C45.2262 29.75 45.7429 29.9344 46.1238 30.2626C46.5047 30.5908 46.7188 31.0359 46.7188 31.5V33.25C46.7188 33.7141 46.5047 34.1592 46.1238 34.4874C45.7429 34.8156 45.2262 35 44.6875 35C44.1488 35 43.6321 34.8156 43.2512 34.4874C42.8703 34.1592 42.6562 33.7141 42.6562 33.25V31.5C42.6562 31.0359 42.8703 30.5908 43.2512 30.2626C43.6321 29.9344 44.1488 29.75 44.6875 29.75ZM46.7188 40.25C46.7188 39.7859 46.5047 39.3407 46.1238 39.0126C45.7429 38.6844 45.2262 38.5 44.6875 38.5C44.1488 38.5 43.6321 38.6844 43.2512 39.0126C42.8703 39.3407 42.6562 39.7859 42.6562 40.25V42C42.6562 42.4641 42.8703 42.9092 43.2512 43.2374C43.6321 43.5656 44.1488 43.75 44.6875 43.75C45.2262 43.75 45.7429 43.5656 46.1238 43.2374C46.5047 42.9092 46.7188 42.4641 46.7188 42V40.25ZM16.25 28C16.25 27.5359 16.464 27.0908 16.8449 26.7626C17.2259 26.4344 17.7425 26.25 18.2813 26.25H32.5C33.0387 26.25 33.5554 26.4344 33.9363 26.7626C34.3172 27.0908 34.5313 27.5359 34.5313 28C34.5313 28.4641 34.3172 28.9092 33.9363 29.2374C33.5554 29.5656 33.0387 29.75 32.5 29.75H18.2813C17.7425 29.75 17.2259 29.5656 16.8449 29.2374C16.464 28.9092 16.25 28.4641 16.25 28ZM18.2813 33.25C17.7425 33.25 17.2259 33.4344 16.8449 33.7626C16.464 34.0908 16.25 34.5359 16.25 35C16.25 35.4641 16.464 35.9092 16.8449 36.2374C17.2259 36.5656 17.7425 36.75 18.2813 36.75H26.4063C26.945 36.75 27.4616 36.5656 27.8426 36.2374C28.2235 35.9092 28.4375 35.4641 28.4375 35C28.4375 34.5359 28.2235 34.0908 27.8426 33.7626C27.4616 33.4344 26.945 33.25 26.4063 33.25H18.2813Z" fill="#006FCD"/>
</g>
</svg>
