<svg width="24" height="24" viewBox="0 0 24 24" fill="none" xmlns="http://www.w3.org/2000/svg">
    <g id="ri:id-card-line">
        <path id="Vector"
            d="M3 6H21V18H3V6ZM2 4C1.73478 4 1.48043 4.10536 1.29289 4.29289C1.10536 4.48043 1 4.73478 1 5V19C1 19.2652 1.10536 19.5196 1.29289 19.7071C1.48043 19.8946 1.73478 20 2 20H22C22.2652 20 22.5196 19.8946 22.7071 19.7071C22.8946 19.5196 23 19.2652 23 19V5C23 4.73478 22.8946 4.48043 22.7071 4.29289C22.5196 4.10536 22.2652 4 22 4H2ZM13 8H19V10H13V8ZM18 12H13V14H18V12ZM10.5 10C10.5 10.663 10.2366 11.2989 9.76777 11.7678C9.29893 12.2366 8.66304 12.5 8 12.5C7.33696 12.5 6.70107 12.2366 6.23223 11.7678C5.76339 11.2989 5.5 10.663 5.5 10C5.5 9.33696 5.76339 8.70107 6.23223 8.23223C6.70107 7.76339 7.33696 7.5 8 7.5C8.66304 7.5 9.29893 7.76339 9.76777 8.23223C10.2366 8.70107 10.5 9.33696 10.5 10ZM8 13.5C7.07174 13.5 6.1815 13.8687 5.52513 14.5251C4.86875 15.1815 4.5 16.0717 4.5 17H11.5C11.5 16.0717 11.1313 15.1815 10.4749 14.5251C9.8185 13.8687 8.92826 13.5 8 13.5Z"
            fill="#FFD233" />
    </g>
</svg>
