<svg width="10" height="13" viewBox="0 0 10 13" fill="none" xmlns="http://www.w3.org/2000/svg">
    <path d="M10 4.82616C9.99034 5.8344 9.75803 6.68939 9.39756 7.5154C8.8635 8.73815 8.11384 9.83103 7.24776 10.8497C6.87136 11.2924 6.46521 11.7118 6.06376 12.134C5.83379 12.3757 5.58869 12.6041 5.34594 12.8342C5.11102 13.0563 4.88497 13.0543 4.6477 12.8342C3.7396 11.9919 2.89127 11.097 2.15074 10.1093C1.41674 9.13032 0.778802 8.09869 0.372387 6.94558C0.171399 6.37474 0.0401036 5.79069 0.00773664 5.18376C-0.0502107 4.09774 0.216556 3.09788 0.835183 2.1974C1.59972 1.08368 2.66209 0.375598 4.01393 0.105429C4.98338 -0.0884937 5.94395 -0.0213961 6.85414 0.360857C8.61866 1.10147 9.6544 2.40937 9.95171 4.26167C9.98695 4.48228 9.99034 4.70797 10 4.82616ZM4.99826 2.15801C3.46865 2.15801 2.2053 3.37974 2.20399 4.86021C2.20295 6.36889 3.45169 7.59622 4.98938 7.59724C6.53308 7.59826 7.79069 6.37601 7.79017 4.87546C7.78991 3.38152 6.53256 2.15801 4.99826 2.15801Z" fill="#F37722"/>
</svg>
