<svg width="24" height="24" viewBox="0 0 24 24" fill="none" xmlns="http://www.w3.org/2000/svg">
<g id="mingcute:phone-line" clip-path="url(#clip0_153_8826)">
<g id="Group">
<path id="Vector" fill-rule="evenodd" clip-rule="evenodd" d="M16.552 22.1335C15.112 22.0805 11.031 21.5165 6.757 17.2435C2.484 12.9695 1.921 8.88946 1.867 7.44846C1.787 5.25246 3.469 3.11946 5.412 2.28646C5.64598 2.18543 5.9022 2.14696 6.15553 2.17484C6.40886 2.20271 6.65059 2.29597 6.857 2.44546C8.465 3.61846 9.574 5.39546 10.527 6.78746C10.7252 7.07691 10.8161 7.42656 10.7837 7.7759C10.7514 8.12525 10.598 8.4523 10.35 8.70046L8.994 10.0575C9.309 10.7525 9.95 11.9505 11 13.0005C12.05 14.0505 13.248 14.6915 13.944 15.0065L15.299 13.6505C15.5481 13.4019 15.8765 13.2487 16.227 13.2175C16.5775 13.1862 16.9278 13.2789 17.217 13.4795C18.637 14.4635 20.305 15.5565 21.521 17.1135C21.6826 17.3214 21.7854 17.5689 21.8187 17.8301C21.8519 18.0913 21.8144 18.3567 21.71 18.5985C20.873 20.5515 18.755 22.2145 16.552 22.1335Z" fill="#787878"/>
</g>
</g>
<defs>
<clipPath id="clip0_153_8826">
<rect width="24" height="24" fill="white"/>
</clipPath>
</defs>
</svg>
