<svg width="19" height="20" viewBox="0 0 19 20" fill="none" xmlns="http://www.w3.org/2000/svg">
    <path d="M9.67529 2.58108e-07C10.8514 -0.000359941 11.9966 0.376291 12.9429 1.07467C13.8892 1.77305 14.5867 2.75638 14.9331 3.88032C15.2794 5.00427 15.2564 6.20964 14.8673 7.31952C14.4782 8.42939 13.7436 9.38532 12.7713 10.047C14.459 10.666 15.9227 11.7759 16.9742 13.2339C18.0257 14.6919 18.6167 16.4312 18.6713 18.228C18.6764 18.3277 18.6615 18.4275 18.6276 18.5214C18.5936 18.6153 18.5412 18.7015 18.4735 18.7749C18.4058 18.8483 18.3241 18.9074 18.2332 18.9488C18.1423 18.9902 18.0441 19.013 17.9443 19.016C17.8445 19.0189 17.7451 19.0019 17.6519 18.9659C17.5588 18.9299 17.4737 18.8756 17.4018 18.8063C17.3299 18.737 17.2726 18.6541 17.2332 18.5623C17.1937 18.4706 17.1731 18.3719 17.1723 18.272C17.1127 16.3235 16.2968 14.4747 14.8975 13.1174C13.4981 11.7602 11.6252 11.0011 9.67579 11.0011C7.72634 11.0011 5.85349 11.7602 4.45412 13.1174C3.05475 14.4747 2.23884 16.3235 2.17929 18.272C2.17333 18.4709 2.08859 18.6593 1.94371 18.7957C1.79884 18.9322 1.60571 19.0055 1.40679 18.9995C1.20788 18.9935 1.01949 18.9088 0.883053 18.7639C0.74662 18.619 0.673326 18.4259 0.679293 18.227C0.734041 16.4304 1.32519 14.6913 2.37665 13.2335C3.42812 11.7757 4.89179 10.6659 6.57929 10.047C5.60698 9.38532 4.87237 8.42939 4.48329 7.31952C4.09422 6.20964 4.07116 5.00427 4.4175 3.88032C4.76385 2.75638 5.46136 1.77305 6.40765 1.07467C7.35395 0.376291 8.49919 -0.000359941 9.67529 2.58108e-07ZM5.67529 5.5C5.67529 6.56087 6.09672 7.57828 6.84687 8.32843C7.59701 9.07857 8.61443 9.5 9.67529 9.5C10.7362 9.5 11.7536 9.07857 12.5037 8.32843C13.2539 7.57828 13.6753 6.56087 13.6753 5.5C13.6753 4.43913 13.2539 3.42172 12.5037 2.67157C11.7536 1.92143 10.7362 1.5 9.67529 1.5C8.61443 1.5 7.59701 1.92143 6.84687 2.67157C6.09672 3.42172 5.67529 4.43913 5.67529 5.5Z" fill="white" fill-opacity="0.7"/>
</svg>
