<svg width="25" height="25" viewBox="0 0 25 25" fill="none" xmlns="http://www.w3.org/2000/svg">
    <path d="M11.4583 19.7917H17.1875C18.1544 19.7917 19.0818 19.4076 19.7655 18.7238C20.4492 18.0401 20.8333 17.1128 20.8333 16.1458C20.8333 15.1789 20.4492 14.2516 19.7655 13.5678C19.0818 12.8841 18.1544 12.5 17.1875 12.5H8.85417C7.88723 12.5 6.9599 12.1159 6.27617 11.4322C5.59245 10.7484 5.20833 9.8211 5.20833 8.85417C5.20833 7.88723 5.59245 6.9599 6.27617 6.27617C6.9599 5.59245 7.88723 5.20833 8.85417 5.20833H13.5417M3.125 17.7083H7.29167V21.875H3.125V17.7083ZM17.7083 3.125H21.875V7.29167H17.7083V3.125Z" stroke="#F37722" stroke-width="2" stroke-linecap="round" stroke-linejoin="round"/>
</svg>
