<svg width="31" height="36" viewBox="0 0 31 36" fill="none" xmlns="http://www.w3.org/2000/svg">
<path fill-rule="evenodd" clip-rule="evenodd" d="M14.3008 0.841074C14.9749 0.582691 15.7115 0.549006 16.4054 0.744825L16.6992 0.841074L28.6576 5.43482C29.2639 5.66773 29.7932 6.07236 30.1836 6.60155C30.5741 7.13075 30.8097 7.76272 30.863 8.42382L30.875 8.71257V18.0978C30.8749 20.9336 30.1275 23.7167 28.7116 26.1534C27.2957 28.5901 25.2638 30.5901 22.8305 31.9421L22.376 32.1853L16.6463 35.1201C16.3308 35.2814 15.9862 35.3744 15.634 35.393C15.2819 35.4117 14.9298 35.3557 14.5997 35.2286L14.3537 35.1201L8.62396 32.1853C6.14792 30.9171 4.05207 28.9875 2.55767 26.6004C1.06327 24.2133 0.225758 21.4571 0.133542 18.6228L0.125 18.0978V8.71257C0.12501 8.04955 0.308862 7.40017 0.655153 6.84002C1.00144 6.27988 1.49593 5.83202 2.08104 5.54857L2.34242 5.43482L14.3008 0.841074ZM21.3647 12.1006L13.5098 20.1471L10.4895 17.0531C10.1689 16.7249 9.73423 16.5407 9.28106 16.5408C8.82789 16.541 8.39335 16.7256 8.07302 17.0539C7.7527 17.3823 7.57283 17.8276 7.57299 18.2918C7.57315 18.756 7.75332 19.2012 8.07387 19.5293L12.1807 23.7363C12.3552 23.9152 12.5624 24.057 12.7905 24.1538C13.0185 24.2506 13.2629 24.3005 13.5098 24.3005C13.7566 24.3005 14.0011 24.2506 14.2291 24.1538C14.4572 24.057 14.6644 23.9152 14.8389 23.7363L23.7803 14.5751C23.9435 14.4136 24.0736 14.2205 24.1631 14.007C24.2527 13.7935 24.2998 13.5639 24.3018 13.3315C24.3037 13.0992 24.2605 12.8687 24.1746 12.6537C24.0887 12.4386 23.9619 12.2432 23.8015 12.0789C23.6411 11.9146 23.4503 11.7846 23.2404 11.6966C23.0304 11.6086 22.8055 11.5644 22.5786 11.5664C22.3518 11.5684 22.1276 11.6167 21.9192 11.7084C21.7108 11.8001 21.5223 11.9334 21.3647 12.1006Z" fill="#0065BC"/>
</svg>
