<svg xmlns="http://www.w3.org/2000/svg" width="25" height="31" viewBox="0 0 25 31" fill="none">
    <path d="M12.5 0L0.125 4.375V17.5C0.125 24.7495 5.66475 30.625 12.5 30.625C19.3353 30.625 24.875 24.7495 24.875 17.5V4.375L12.5 0ZM22.5547 17.5C22.5547 23.3892 18.0526 28.1641 12.5 28.1641C6.94736 28.1641 2.44531 23.3892 2.44531 17.5V6.2207L12.5 2.46094L22.5547 6.2207V17.5Z" fill="#ABABAB"/>
    <path d="M7.72227 15C7.61473 14.8854 7.48693 14.7945 7.34618 14.7325C7.20543 14.6705 7.05451 14.6385 6.9021 14.6385C6.74969 14.6385 6.59877 14.6705 6.45802 14.7325C6.31727 14.7945 6.18946 14.8854 6.08193 15C5.97391 15.1141 5.88819 15.2496 5.8297 15.3989C5.77121 15.5481 5.7411 15.7082 5.7411 15.8699C5.7411 16.0315 5.77121 16.1916 5.8297 16.3409C5.88819 16.4901 5.97391 16.6257 6.08193 16.7397L10.252 21.1626L10.3197 21.2344C10.4214 21.3425 10.5422 21.4283 10.6752 21.4868C10.8082 21.5453 10.9508 21.5754 11.0948 21.5754C11.2388 21.5754 11.3814 21.5453 11.5144 21.4868C11.6474 21.4283 11.7682 21.3425 11.8699 21.2344L19.0725 13.5953C19.1745 13.4874 19.2554 13.3593 19.3105 13.2182C19.3657 13.0772 19.3941 12.926 19.3941 12.7733C19.3941 12.6206 19.3657 12.4694 19.3105 12.3283C19.2554 12.1872 19.1745 12.0591 19.0725 11.9513L18.9823 11.8556C18.8806 11.7475 18.7598 11.6617 18.6268 11.6032C18.4938 11.5447 18.3513 11.5146 18.2073 11.5146C18.0634 11.5146 17.9208 11.5447 17.7878 11.6032C17.6548 11.6617 17.534 11.7475 17.4323 11.8556L11.0933 18.5753L7.72239 15Z" fill="#ABABAB"/>
</svg>
