<svg width="15" height="16" viewBox="0 0 15 16" fill="none" xmlns="http://www.w3.org/2000/svg">
    <path id="Vector"
        d="M12.6856 7.74898C12.8332 7.66367 12.9164 7.50242 12.8836 7.31633L12.7929 6.79766C12.7549 6.5832 12.5747 6.40086 12.3584 6.33125L12.0724 3.15875C12.0258 2.64102 11.6044 2.21727 11.1363 2.21727H10.7018V1.83922C10.7018 1.36039 10.32 0.96875 9.85314 0.96875H5.18345C4.7161 0.96875 4.33384 1.36039 4.33384 1.83922V2.21727H3.89978C3.43149 2.21727 3.01009 2.64102 2.96368 3.15875L2.67915 6.32094C2.44618 6.3807 2.24813 6.57102 2.20782 6.79766L2.11618 7.31633C2.08149 7.51719 2.1804 7.69039 2.35056 7.76867V9.21664C2.18228 9.47938 2.11243 9.83492 2.18251 10.2259L2.28259 10.7898C2.39954 11.4441 2.8711 12.0013 3.41204 12.1848V13.2927H3.4097C3.18962 13.2927 2.97142 13.4452 2.90251 13.647L2.59571 14.5412C2.5547 14.6623 2.57181 14.7866 2.64329 14.882C2.71501 14.9769 2.83079 15.0312 2.96157 15.0312H5.65032C5.78181 15.0312 5.89759 14.9766 5.96884 14.881C6.03985 14.7856 6.05696 14.6612 6.01548 14.54L5.70868 13.6463C5.63907 13.4445 5.4211 13.2922 5.20196 13.2922H5.19962V12.2487H9.83603V13.2922H9.83368C9.61478 13.2922 9.39704 13.4443 9.32673 13.6466L9.02017 14.54C8.97892 14.6612 8.99579 14.7854 9.06681 14.881C9.13853 14.9766 9.25478 15.0312 9.38626 15.0312H12.0745C12.2058 15.0312 12.3218 14.9766 12.3928 14.881C12.4641 14.7854 12.4812 14.6612 12.4395 14.54L12.1331 13.6463C12.0635 13.4445 11.8453 13.2922 11.6262 13.2922H11.6236V12.1843C12.1643 12.0008 12.6361 11.4437 12.7528 10.7893L12.8538 10.2254C12.9237 9.83445 12.8536 9.47891 12.6853 9.21594L12.6856 7.74898ZM11.3449 7.81414H12.2386V8.83672C12.1218 8.7894 11.9969 8.76528 11.8709 8.7657H11.3452L11.3449 7.81414ZM2.79774 7.81414H3.69142V8.76594H3.16524C3.03921 8.76544 2.9143 8.78957 2.79751 8.83695L2.79774 7.81414ZM9.80181 3.14563C9.80063 3.16133 9.80228 3.17656 9.80017 3.1925L9.4022 6.3507C9.34454 6.80773 8.98431 7.19422 8.61587 7.19422H6.42071C6.05181 7.19422 5.69157 6.80797 5.63438 6.3507L5.23571 3.1925C5.23384 3.17656 5.23548 3.16133 5.23407 3.14563H9.80181ZM3.40899 3.19602C3.43501 2.90539 3.66446 2.65016 3.89978 2.65016H4.42056C4.49775 2.81394 4.62441 2.94937 4.78267 3.03734C4.78103 3.10555 4.7829 3.17469 4.79181 3.245L5.19048 6.4032C5.27509 7.07797 5.82681 7.62688 6.42048 7.62688H8.61563C9.2086 7.62688 9.76056 7.07797 9.84563 6.4032L10.2436 3.245C10.2525 3.17492 10.2544 3.10578 10.253 3.03734C10.4111 2.94929 10.5377 2.81388 10.6149 2.65016H11.1361C11.3714 2.65016 11.6006 2.90539 11.6269 3.19625L11.9065 6.29961H11.3742C11.082 6.29961 10.8031 6.52391 10.7548 6.79766L10.6629 7.31633C10.6277 7.51719 10.7269 7.69039 10.8975 7.76891V8.76594H4.13837V7.74898C4.28579 7.66367 4.36923 7.50242 4.33665 7.31633L4.24595 6.79766C4.1972 6.52391 3.91876 6.29961 3.62603 6.29961H3.12985L3.40899 3.19602ZM4.75313 13.2924H3.85946V12.249H4.75313V13.2924ZM10.283 13.2924V12.249H11.1769V13.2924H10.283Z"
        fill="#FFD233" />
</svg>
