<svg width="40" height="43" viewBox="0 0 40 43" fill="none" xmlns="http://www.w3.org/2000/svg">
<g id="tabler:route-square">
<path id="Vector" d="M18.0812 33.7089H27.1219C28.6477 33.7089 30.111 33.0547 31.1899 31.8902C32.2689 30.7257 32.875 29.1462 32.875 27.4993C32.875 25.8525 32.2689 24.273 31.1899 23.1085C30.111 21.944 28.6477 21.2898 27.1219 21.2898H13.9719C12.446 21.2898 10.9827 20.6355 9.9038 19.471C8.82488 18.3065 8.21874 16.7271 8.21874 15.0802C8.21874 13.4333 8.82488 11.8539 9.9038 10.6893C10.9827 9.52482 12.446 8.8706 13.9719 8.8706H21.3687M4.93124 30.1606H11.5062V37.2573H4.93124V30.1606ZM27.9437 5.32227H34.5187V12.4189H27.9437V5.32227Z" stroke="#4053B2" stroke-width="3" stroke-linecap="round" stroke-linejoin="round"/>
</g>
</svg>
