<svg width="81" height="58" viewBox="0 0 81 58" fill="none" xmlns="http://www.w3.org/2000/svg">
<g id="tabler:bus">
<g id="Group">
<path id="Vector" d="M13.75 41.0003C13.75 42.2822 14.4612 43.5116 15.727 44.418C16.9929 45.3244 18.7098 45.8337 20.5 45.8337C22.2902 45.8337 24.0071 45.3244 25.273 44.418C26.5388 43.5116 27.25 42.2822 27.25 41.0003C27.25 39.7184 26.5388 38.4891 25.273 37.5826C24.0071 36.6762 22.2902 36.167 20.5 36.167C18.7098 36.167 16.9929 36.6762 15.727 37.5826C14.4612 38.4891 13.75 39.7184 13.75 41.0003ZM54.25 41.0003C54.25 42.2822 54.9612 43.5116 56.227 44.418C57.4929 45.3244 59.2098 45.8337 61 45.8337C62.7902 45.8337 64.5071 45.3244 65.773 44.418C67.0388 43.5116 67.75 42.2822 67.75 41.0003C67.75 39.7184 67.0388 38.4891 65.773 37.5826C64.5071 36.6762 62.7902 36.167 61 36.167C59.2098 36.167 57.4929 36.6762 56.227 37.5826C54.9612 38.4891 54.25 39.7184 54.25 41.0003Z" stroke="#4053B2" stroke-width="3" stroke-linecap="round" stroke-linejoin="round"/>
<path id="Vector_2" d="M13.75 41H7V14.4167C7 13.7757 7.35558 13.161 7.98851 12.7078C8.62145 12.2546 9.47989 12 10.375 12H57.625C62.1005 12 66.3928 13.7823 69.5574 16.9548C72.7221 20.1273 74.5 24.4301 74.5 28.9167V41H67.75M54.25 41H27.25" stroke="#4053B2" stroke-width="3" stroke-linecap="round" stroke-linejoin="round"/>
<path id="Vector_3" d="M54.25 12L59.3125 28.9167H74.5M7 24.0833H57.625M23.875 12V24.0833M40.75 12V24.0833" stroke="#4053B2" stroke-width="3" stroke-linecap="round" stroke-linejoin="round"/>
</g>
</g>
</svg>
