<svg width="245" height="106" viewBox="0 0 245 175" fill="none" xmlns="http://www.w3.org/2000/svg">
    <g id="Group 38">
        <g id="Group 7">
            <g id="Group 6">
                <g id="Vector 7">
                    <path
                        d="M30.2957 95.3795H105.435V136.627C105.435 137.455 106.106 138.127 106.935 138.127H140.367C141.196 138.127 141.867 137.455 141.867 136.627V98.9813L198.483 98.4803V110.476L145.64 153.016H93.4252L89.248 143.105L77.5117 138.127L60.3422 140.497H30.2957L30.2957 95.3795Z"
                        fill="#FFC30F" />
                    <path
                        d="M105.435 95.3795H30.2957L30.2957 140.497H60.3422L77.5117 138.127L89.248 143.105L93.4252 153.016H145.64L198.483 110.476V98.4803L141.867 98.9813V136.627C141.867 137.455 141.196 138.127 140.367 138.127H106.935C106.106 138.127 105.435 137.455 105.435 136.627V95.3795ZM105.435 95.3795V50.416"
                        stroke="#747BBF" stroke-width="1.5" />
                </g>
                <path id="Vector 8"
                    d="M30.2605 95.3807H66.1229V59.4253C66.1229 54.28 70.294 50.1089 75.4393 50.1089H105.062H141.408C141.601 50.1089 141.757 50.2653 141.757 50.4582V98.5764H198.478V86.2981C198.478 86.1697 198.374 86.0655 198.245 86.0652L159.323 85.9722C159.131 85.9717 158.975 85.8154 158.975 85.6228V44.777C158.975 44.5841 159.131 44.4277 159.324 44.4277H180.645C180.801 44.4277 180.928 44.301 180.928 44.1448C180.928 37.4374 175.49 32 168.783 32H107.844L47.4889 32.8287C37.9359 32.9599 30.2605 40.7414 30.2605 50.2953L30.2605 95.3807Z"
                    fill="#EB1B24" stroke="#747BBF" stroke-width="1.5" />
                <path id="Vector 9"
                    d="M30.2957 140.233H63.4775L61.9094 151.934H30.645C30.4521 151.934 30.2957 151.777 30.2957 151.584V140.233Z"
                    fill="#FFC30F" stroke="#747BBF" stroke-width="1.5" />
                <g id="Group 4">
                    <g id="Group 3">
                        <g id="Vector">
                            <path
                                d="M95.8992 153.016C95.8992 164.615 86.3073 174.018 74.4752 174.018C62.6431 174.018 53.0513 164.615 53.0513 153.016C53.0513 141.416 62.6431 132.013 74.4752 132.013C86.3073 132.013 95.8992 141.416 95.8992 153.016Z"
                                fill="#EB1B24" />
                            <path
                                d="M89.7387 153.016C89.7387 161.446 82.9042 168.281 74.4734 168.281C66.0427 168.281 59.2082 161.446 59.2082 153.016C59.2082 144.585 66.0427 137.75 74.4734 137.75C82.9042 137.75 89.7387 144.585 89.7387 153.016Z"
                                fill="#ACB7D0" />
                            <path
                                d="M80.4738 153.016C80.4738 156.33 77.7872 159.016 74.473 159.016C71.1589 159.016 68.4722 156.33 68.4722 153.016C68.4722 149.701 71.1589 147.015 74.473 147.015C77.7872 147.015 80.4738 149.701 80.4738 153.016Z"
                                fill="#EB1B24" />
                        </g>
                    </g>
                </g>
                <g id="Group 5">
                    <path id="Ellipse 10"
                        d="M209.87 153.016C209.87 164.615 200.278 174.018 188.446 174.018C176.614 174.018 167.022 164.615 167.022 153.016C167.022 141.416 176.614 132.013 188.446 132.013C200.278 132.013 209.87 141.416 209.87 153.016Z"
                        fill="#EB1B24" />
                    <g id="Group 3_2">
                        <circle id="Ellipse 9" cx="188.449" cy="153.015" r="15.2652"
                            fill="#ACB7D0" />
                        <circle id="Ellipse 8" cx="188.447" cy="153.016" r="6.00081"
                            fill="#EB1B24" />
                    </g>
                </g>
                <path id="Vector 11"
                    d="M197.296 111.45L159.042 142.308H187.22H214.995C215.208 142.308 215.371 142.125 215.338 141.915C215.034 139.993 213.557 131.462 210.553 126.159C206.763 119.469 197.296 111.45 197.296 111.45Z"
                    fill="#FFC30F" stroke="#747BBF" stroke-width="1.5" />
                <path id="Vector 10"
                    d="M159.1 85.7509V44.8252C159.1 44.6322 159.257 44.4758 159.449 44.4758H171.405C171.462 44.4758 171.509 44.4854 171.559 44.5124C172.521 45.0341 183.475 51.1485 191.943 63.4835C197.42 71.4619 198.372 84.6288 198.456 85.9863C198.46 86.0529 198.407 86.1003 198.34 86.1003H159.449C159.257 86.1003 159.1 85.9439 159.1 85.7509Z"
                    fill="#FFC30F" stroke="#747BBF" stroke-width="1.5" />
                <rect id="Rectangle 15" x="172.563" y="105.294" width="5.89821" height="25.6451"
                    rx="2.94911" transform="rotate(88.9104 172.563 105.294)" fill="#565D95" />
                <path id="Vector 22"
                    d="M183.85 61.2146C188.686 67.3485 191.248 73.1032 193.254 83.1297"
                    stroke="#D3E9FA" stroke-width="1.5" />
            </g>
        </g>
    </g>
</svg>
