<svg width="50" height="53" viewBox="0 0 50 53" fill="none" xmlns="http://www.w3.org/2000/svg">
<path id="Vector" d="M0.319336 8.13333C0.319336 3.66 4.33934 0 9.25267 0H40.5193C45.4327 0 49.4527 3.66 49.4527 8.13333V40.6667C49.4527 44.7333 44.986 44.7333 44.986 44.7333V48.8C44.986 51.0367 42.976 52.8667 40.5193 52.8667C38.0627 52.8667 36.0527 51.0367 36.0527 48.8V44.7333H13.7193V48.8C13.7193 51.0367 11.7093 52.8667 9.25267 52.8667C6.796 52.8667 4.786 51.0367 4.786 48.8V44.7333C0.319336 44.7333 0.319336 40.6667 0.319336 40.6667V8.13333ZM7.01934 12.2C5.76867 12.2 4.786 13.0947 4.786 14.2333V26.4333C4.786 27.572 5.76867 28.4667 7.01934 28.4667H42.7527C44.0033 28.4667 44.986 27.572 44.986 26.4333V14.2333C44.986 13.0947 44.0033 12.2 42.7527 12.2H7.01934ZM9.25267 32.5333C6.796 32.5333 4.786 34.3633 4.786 36.6C4.786 38.8367 6.796 40.6667 9.25267 40.6667C11.7093 40.6667 13.7193 38.8367 13.7193 36.6C13.7193 34.3633 11.7093 32.5333 9.25267 32.5333ZM40.5193 32.5333C38.0627 32.5333 36.0527 34.3633 36.0527 36.6C36.0527 38.8367 38.0627 40.6667 40.5193 40.6667C42.976 40.6667 44.986 38.8367 44.986 36.6C44.986 34.3633 42.976 32.5333 40.5193 32.5333ZM9.25267 6.1C9.25267 7.23867 10.2353 8.13333 11.486 8.13333H38.286C39.5367 8.13333 40.5193 7.23867 40.5193 6.1C40.5193 4.96133 39.5367 4.06667 38.286 4.06667H11.486C10.2353 4.06667 9.25267 4.96133 9.25267 6.1Z" fill="#EB1B24"/>
</svg>
