<svg width="29" height="30" viewBox="0 0 29 30" fill="none" xmlns="http://www.w3.org/2000/svg">
<path d="M14.5 0C6.91825 0 0.75 6.729 0.75 15V21.2145C0.75 22.7505 1.98337 24 3.5 24H4.875C5.23967 24 5.58941 23.842 5.84727 23.5607C6.10513 23.2794 6.25 22.8978 6.25 22.5V14.7855C6.25 14.3877 6.10513 14.0061 5.84727 13.7248C5.58941 13.4435 5.23967 13.2855 4.875 13.2855H3.6265C4.391 7.4805 8.96975 3 14.5 3C20.0303 3 24.609 7.4805 25.3735 13.2855H24.125C23.7603 13.2855 23.4106 13.4435 23.1527 13.7248C22.8949 14.0061 22.75 14.3877 22.75 14.7855V24C22.75 25.6545 21.5166 27 20 27H17.25V25.5H11.75V30H20C23.0333 30 25.5 27.309 25.5 24C27.0166 24 28.25 22.7505 28.25 21.2145V15C28.25 6.729 22.0817 0 14.5 0Z" fill="#ABABAB"/>
</svg>
